<svg width="12" height="16" viewBox="0 0 12 16" fill="none" xmlns="http://www.w3.org/2000/svg">
<path d="M3.20835 7.79195H8.79165V6.70866H3.20835V7.79195ZM3.20835 4.79195H8.79165V3.70866H3.20835V4.79195ZM11.5464 14.5259L8.86954 11.0087C8.67979 10.7542 8.44492 10.5572 8.16492 10.4178C7.8849 10.2784 7.57993 10.2087 7.25 10.2087H0.416687V1.75674C0.416687 1.38163 0.546284 1.06456 0.805478 0.805534C1.06467 0.546507 1.38194 0.416992 1.75727 0.416992H10.2495C10.6248 0.416992 10.941 0.546507 11.1979 0.805534C11.4548 1.06456 11.5833 1.38163 11.5833 1.75674V14.2439C11.5833 14.2939 11.582 14.3429 11.5793 14.3911C11.5766 14.4393 11.5657 14.4843 11.5464 14.5259ZM1.75644 15.5836C1.38133 15.5836 1.06426 15.4541 0.805229 15.1951C0.546201 14.936 0.416687 14.619 0.416687 14.2439V11.292H7.25C7.39317 11.292 7.53366 11.3229 7.67148 11.3849C7.8093 11.4469 7.92613 11.5412 8.02196 11.6679L10.8798 15.4243C10.7943 15.4707 10.6955 15.5088 10.5835 15.5387C10.4714 15.5687 10.3581 15.5836 10.2436 15.5836H1.75644Z" fill="white"/>
</svg>
