<svg width="16" height="12" viewBox="0 0 16 12" fill="none" xmlns="http://www.w3.org/2000/svg">
<path d="M3.30451 11.5909L4.49041 9.11335C4.57481 8.9157 4.70862 8.76533 4.89185 8.66223C5.07507 8.55915 5.26978 8.5076 5.47597 8.5076H7.45837V4.67904C5.51499 4.62563 3.88626 4.39566 2.57216 3.98915C1.25806 3.58263 0.601013 3.08611 0.601013 2.49958C0.601013 1.84894 1.31735 1.32437 2.75003 0.925874C4.18273 0.527374 5.93272 0.328125 8.00001 0.328125C10.062 0.328125 11.8106 0.527374 13.246 0.925874C14.6813 1.32437 15.399 1.84894 15.399 2.49958C15.399 3.09146 14.7372 3.58932 13.4134 3.99317C12.0897 4.397 10.4658 4.62563 8.54166 4.67904V8.5076H10.5241C10.7356 8.5076 10.9316 8.55915 11.1122 8.66223C11.2927 8.76533 11.4252 8.9157 11.5096 9.11335L12.6955 11.5909H11.5962L10.5962 9.5909H5.40385L4.40385 11.5909H3.30451Z" fill="white"/>
</svg>
