<svg width="22" height="19" viewBox="0 0 22 19" fill="none" xmlns="http://www.w3.org/2000/svg">
<path d="M18.7616 18.8693L14.7156 14.8538C14.2027 15.0436 13.6344 15.1988 13.0106 15.3193C12.3869 15.4398 11.7167 15.5 11.0001 15.5C8.65008 15.5 6.53666 14.8538 4.65982 13.5615C2.78282 12.2692 1.40907 10.582 0.538574 8.5C0.907741 7.61667 1.38466 6.79267 1.96932 6.028C2.55399 5.26317 3.19757 4.6 3.90007 4.0385L1.13082 1.2385L2.18482 0.184753L19.8153 17.8153L18.7616 18.8693ZM11.0001 12.577C11.2091 12.577 11.4232 12.559 11.6423 12.523C11.8617 12.4872 12.0566 12.4346 12.2271 12.3653L7.13482 7.273C7.06549 7.45634 7.01291 7.656 6.97707 7.872C6.94107 8.08817 6.92307 8.2975 6.92307 8.5C6.92307 9.63467 7.31891 10.5978 8.11058 11.3895C8.90224 12.1812 9.86541 12.577 11.0001 12.577ZM17.9538 13.0845L14.8173 9.973C14.8955 9.76017 14.9583 9.532 15.0058 9.2885C15.0533 9.04484 15.0771 8.782 15.0771 8.5C15.0771 7.36534 14.6812 6.40217 13.8896 5.6105C13.0979 4.81884 12.1347 4.423 11.0001 4.423C10.7181 4.423 10.4585 4.44834 10.2213 4.499C9.98416 4.54967 9.75591 4.62567 9.53657 4.727L7.03482 2.23475C7.66682 1.98342 8.31232 1.79817 8.97132 1.679C9.63033 1.55967 10.3066 1.5 11.0001 1.5C13.3436 1.5 15.457 2.14617 17.3403 3.4385C19.2237 4.73084 20.5974 6.418 21.4616 8.5C21.0911 9.3935 20.6126 10.2275 20.0261 11.002C19.4394 11.7763 18.7487 12.4705 17.9538 13.0845ZM13.6846 8.85L10.6751 5.85C11.1161 5.76667 11.5324 5.79934 11.9241 5.948C12.3157 6.09684 12.6532 6.318 12.9366 6.6115C13.2264 6.90517 13.4386 7.24942 13.5731 7.64425C13.7077 8.03909 13.7449 8.441 13.6846 8.85Z" fill="black" fill-opacity="0.4"/>
</svg>
