<svg width="12" height="16" viewBox="0 0 12 16" fill="none" xmlns="http://www.w3.org/2000/svg">
<path d="M0.416687 13.4041V12.3208H1.25644V6.9362C1.25644 5.75992 1.62662 4.73081 2.367 3.84887C3.10739 2.96692 4.05451 2.43354 5.20835 2.24872V1.20866C5.20835 0.988756 5.28523 0.80184 5.43898 0.64791C5.59273 0.493965 5.77942 0.416992 5.99906 0.416992C6.2187 0.416992 6.40571 0.493965 6.56008 0.64791C6.71446 0.80184 6.79165 0.988756 6.79165 1.20866V2.24872C7.94549 2.43354 8.89261 2.96692 9.633 3.84887C10.3734 4.73081 10.7436 5.75992 10.7436 6.9362V12.3208H11.5833V13.4041H0.416687ZM5.99417 15.7439C5.62412 15.7439 5.3093 15.6127 5.04969 15.3503C4.79008 15.088 4.66027 14.7726 4.66027 14.4041H7.33973C7.33973 14.7781 7.20798 15.0948 6.94448 15.3545C6.68096 15.6141 6.36419 15.7439 5.99417 15.7439Z" fill="black"/>
</svg>
